<?xml version="1.0" standalone="no"?>
<!DOCTYPE svg PUBLIC "-//W3C//DTD SVG 20010904//EN"
 "http://www.w3.org/TR/2001/REC-SVG-20010904/DTD/svg10.dtd">
<svg version="1.0" xmlns="http://www.w3.org/2000/svg"
 width="102.000000pt" height="45.000000pt" viewBox="0 0 102.000000 45.000000"
 preserveAspectRatio="xMidYMid meet">

<g transform="translate(0.000000,45.000000) scale(0.100000,-0.100000)"
fill="#000000" stroke="none">
<path d="M528 383 c-16 -10 -28 -21 -28 -25 0 -13 40 -48 65 -58 14 -5 25 -14
25 -20 0 -13 -27 -13 -35 0 -7 11 -55 14 -55 4 0 -16 46 -44 72 -44 49 0 69
16 66 56 -2 32 -6 36 -45 46 -24 6 -43 14 -43 19 0 12 27 11 35 -1 8 -12 55
-13 55 -1 0 32 -74 48 -112 24z"/>
<path d="M10 315 c0 -73 1 -75 25 -75 21 0 25 5 25 30 0 17 4 30 10 30 5 0 16
-13 25 -30 11 -21 23 -30 40 -30 31 0 33 22 4 49 l-21 19 21 18 c44 38 14 64
-73 64 l-56 0 0 -75z m88 37 c2 -7 -6 -12 -17 -12 -21 0 -27 11 -14 24 9 9 26
2 31 -12z"/>
<path d="M737 343 c-16 -15 -6 -43 16 -44 17 -1 18 -2 4 -6 -9 -2 -15 -9 -12
-13 9 -15 55 12 55 32 0 13 -8 18 -27 18 -22 0 -25 2 -13 10 13 8 13 10 -1 10
-9 0 -19 -3 -22 -7z"/>
<path d="M690 304 c0 -3 8 -13 17 -22 16 -16 16 -17 0 -20 -20 -4 -23 -22 -3
-22 26 0 37 25 20 48 -14 20 -34 30 -34 16z"/>
<path d="M800 232 c0 -11 -45 -32 -67 -32 -9 0 -24 -10 -35 -22 -33 -39 -7
-116 40 -118 6 0 12 -4 12 -10 0 -5 7 -10 15 -10 8 0 15 5 15 10 0 6 8 10 17
10 9 0 25 8 36 17 19 17 20 17 14 1 -6 -16 1 -18 63 -18 56 0 70 3 70 15 0 11
-11 15 -40 15 l-40 0 0 61 c0 60 0 60 -27 57 -16 -2 -27 -8 -25 -15 3 -17 -8
-16 -31 1 -10 8 -15 20 -11 30 3 9 3 16 0 16 -3 0 -6 -4 -6 -8z m5 -83 c11
-35 -4 -60 -33 -57 -23 2 -28 9 -30 37 -2 19 2 37 8 41 19 12 49 0 55 -21z"/>
<path d="M640 226 c0 -2 8 -10 18 -17 15 -13 16 -12 3 4 -13 16 -21 21 -21 13z"/>
<path d="M28 199 c-11 -6 -18 -22 -18 -39 0 -25 6 -30 43 -42 41 -14 52 -30
24 -36 -8 -2 -22 4 -31 13 -11 11 -21 13 -32 7 -14 -8 -13 -12 9 -35 22 -25
67 -37 67 -19 0 4 12 12 26 19 20 9 30 9 45 0 10 -6 19 -15 19 -19 0 -5 9 -8
20 -8 11 0 20 4 20 9 0 5 9 11 20 14 20 5 37 33 27 43 -3 3 -22 0 -42 -7 -31
-11 -37 -11 -45 1 -14 21 -12 43 4 66 12 15 17 17 27 7 15 -15 59 -17 59 -4 0
5 -8 17 -17 26 -19 19 -90 15 -103 -6 -6 -9 -14 -8 -31 5 -26 18 -65 20 -91 5z
m62 -29 c0 -5 -7 -10 -15 -10 -8 0 -15 5 -15 10 0 6 7 10 15 10 8 0 15 -4 15
-10z m30 -10 c0 -5 -5 -10 -11 -10 -5 0 -7 5 -4 10 3 6 8 10 11 10 2 0 4 -4 4
-10z"/>
<path d="M340 135 c0 -68 2 -75 20 -75 15 0 20 7 20 25 0 21 5 25 30 25 25 0
30 -4 30 -25 0 -18 5 -25 20 -25 12 0 20 7 20 18 1 16 1 16 11 0 5 -10 19 -18
29 -18 11 0 20 -4 20 -10 0 -5 7 -10 15 -10 8 0 15 5 15 10 0 6 8 10 18 10 43
0 68 72 42 120 -14 26 -82 36 -120 17 -26 -13 -30 -13 -30 -1 0 8 -9 14 -20
14 -15 0 -20 -7 -20 -25 0 -21 -5 -25 -30 -25 -25 0 -30 4 -30 25 0 18 -5 25
-20 25 -18 0 -20 -7 -20 -75z m240 24 c18 -32 4 -71 -23 -67 -39 5 -34 87 5
88 4 0 12 -9 18 -21z"/>
</g>
</svg>
